<svg xmlns="http://www.w3.org/2000/svg" xmlns:xlink="http://www.w3.org/1999/xlink" xmlns:lucid="lucid" width="1700" height="810"><g transform="translate(-80 -30)" lucid:page-tab-id="0_0"><path d="M520 188c0 6.63-26.86 12-60 12s-60-5.37-60-12V92c0-6.63 26.86-12 60-12s60 5.37 60 12z" stroke="#5e5e5e" stroke-width="3" fill="#fff"/><path d="M520 92c0 6.63-26.86 12-60 12s-60-5.37-60-12" stroke="#5e5e5e" stroke-width="3" fill="none"/><use xlink:href="#a" transform="matrix(1,0,0,1,405,109) translate(7.284444444444453 51.588333333333324)"/><path d="M1168 50c28.72 0 52 40.3 52 90s-23.28 90-52 90H752c-28.72 0-52-40.3-52-90s23.28-90 52-90z" stroke="#5e5e5e" stroke-width="3" fill="#fff"/><path d="M1168 230c-28.72 0-52-40.3-52-90s23.28-90 52-90" stroke="#5e5e5e" stroke-width="3" fill="none"/><use xlink:href="#b" transform="matrix(1,0,0,1,705,55) translate(142.95000000000005 97.44999999999999)"/><path d="M1480 188c0 6.63-26.86 12-60 12s-60-5.37-60-12V92c0-6.63 26.86-12 60-12s60 5.37 60 12z" stroke="#5e5e5e" stroke-width="3" fill="#fff"/><path d="M1480 92c0 6.63-26.86 12-60 12s-60-5.37-60-12" stroke="#5e5e5e" stroke-width="3" fill="none"/><use xlink:href="#c" transform="matrix(1,0,0,1,1365,108.99999999999997) translate(-0.9777777777777672 51.04222222222222)"/><path d="M530 126c0-3.3 2.7-6 6-6h102c3.3 0 6-2.7 6-6v-8c0-3.3 1.8-4 4-1.54l28 31.08c2.2 2.46 2.2 6.46 0 8.92l-28 31.08c-2.2 2.46-4 1.77-4-1.54v-8c0-3.3-2.7-6-6-6H536c-3.3 0-6-2.7-6-6zM1170 126c0-3.3 2.7-6 6-6h122c3.3 0 6-2.7 6-6v-8c0-3.3 1.8-4 4-1.54l28 31.08c2.2 2.46 2.2 6.46 0 8.92l-28 31.08c-2.2 2.46-4 1.77-4-1.54v-8c0-3.3-2.7-6-6-6h-122c-3.3 0-6-2.7-6-6zM100 386c0-3.3 2.7-6 6-6h1648c3.3 0 6 2.7 6 6v428c0 3.3-2.7 6-6 6H106c-3.3 0-6-2.7-6-6z" stroke="#5e5e5e" stroke-width="3" fill="#fff"/><path d="M760 406c0-3.3 2.7-6 6-6h328c3.3 0 6 2.7 6 6v28c0 3.3-2.7 6-6 6H766c-3.3 0-6-2.7-6-6z" stroke="#000" stroke-opacity="0" stroke-width="10" fill="#fff" fill-opacity="0"/><use xlink:href="#d" transform="matrix(1,0,0,1,765,405) translate(94.05555555555556 32)"/><path d="M410 588.8c0-3.33 2.7-6 6-6h97.02c3.3 0 6-2.7 6-6v-5.23c0-3.3 1.8-4 4-1.54l22.97 25.5c2.2 2.47 2.2 6.47 0 8.93l-22.97 25.5c-2.22 2.47-4 1.78-4-1.53v-5.22c0-3.3-2.7-6-6-6H416c-3.3 0-6-2.67-6-6zM255.2 513.6c2.65-2 6.95-2 9.6 0l110.4 82.8c2.65 2 2.65 5.2 0 7.2l-110.4 82.8c-2.65 2-6.95 2-9.6 0l-110.4-82.8c-2.65-2-2.65-5.2 0-7.2z" stroke="#5e5e5e" stroke-width="3" fill="#fff"/><use xlink:href="#e" transform="matrix(1,0,0,1,145,515) translate(68.60499999999999 69.46)"/><use xlink:href="#f" transform="matrix(1,0,0,1,145,515) translate(61.05833333333333 105.83333333333333)"/><path d="M695.2 513.6c2.65-2 6.95-2 9.6 0l110.4 82.8c2.65 2 2.65 5.2 0 7.2l-110.4 82.8c-2.65 2-6.95 2-9.6 0l-110.4-82.8c-2.65-2-2.65-5.2 0-7.2z" stroke="#5e5e5e" stroke-width="3" fill="#fff"/><use xlink:href="#g" transform="matrix(1,0,0,1,585,515) translate(69.37833333333333 69.46)"/><use xlink:href="#h" transform="matrix(1,0,0,1,585,515) translate(54.431666666666665 105.83333333333333)"/><path d="M1065.18 515.3c1.56-2.93 5.5-5.3 8.82-5.3h132c3.3 0 7.26 2.37 8.82 5.3l42.36 79.4c1.56 2.93 1.56 7.67 0 10.6l-42.36 79.4c-1.56 2.93-5.5 5.3-8.82 5.3h-132c-3.3 0-7.26-2.37-8.82-5.3l-42.36-79.4c-1.56-2.93-1.56-7.67 0-10.6z" stroke="#5e5e5e" stroke-width="3" fill="#fff"/><use xlink:href="#i" transform="matrix(1,0,0,1,1025,515) translate(61.751666666666665 75.05375)"/><use xlink:href="#j" transform="matrix(1,0,0,1,1025,515) translate(65.75166666666667 111.42708333333333)"/><path d="M1505.18 515.3c1.56-2.93 5.5-5.3 8.82-5.3h162c13.25 0 24 40.3 24 90s-10.75 90-24 90h-162c-3.3 0-7.26-2.37-8.82-5.3l-42.36-79.4c-1.56-2.93-1.56-7.67 0-10.6z" stroke="#5e5e5e" stroke-width="3" fill="#fff"/><use xlink:href="#k" transform="matrix(1,0,0,1,1465.0000000000002,514.9999999999999) translate(69.265 75.05375)"/><use xlink:href="#l" transform="matrix(1,0,0,1,1465.0000000000002,514.9999999999999) translate(61.26500000000001 111.42708333333333)"/><path d="M850 588.8c0-3.33 2.7-6 6-6h97.02c3.3 0 6-2.7 6-6v-5.23c0-3.3 1.8-4 4-1.54l22.97 25.5c2.2 2.47 2.2 6.47 0 8.93l-22.97 25.5c-2.22 2.47-4 1.78-4-1.53v-5.22c0-3.3-2.7-6-6-6H856c-3.3 0-6-2.67-6-6zM1290 588.8c0-3.33 2.7-6 6-6h97.02c3.3 0 6-2.7 6-6v-5.23c0-3.3 1.8-4 4-1.54l22.97 25.5c2.2 2.47 2.2 6.47 0 8.93l-22.97 25.5c-2.22 2.47-4 1.78-4-1.53v-5.22c0-3.3-2.7-6-6-6H1296c-3.3 0-6-2.67-6-6z" stroke="#5e5e5e" stroke-width="3" fill="#fff"/><defs><path fill="#333" d="M133 5c-30 1-52-22-51-52v-608c0-31 20-50 51-50h358c32 0 48 14 48 42s-16 42-48 42H184v221h287c32 0 48 14 48 42s-16 42-48 42H184v269c0 32-19 52-51 52" id="m"/><path fill="#333" d="M452-123c20 0 33 18 32 39-3 46-70 67-112 80C186 43 36-64 42-245c3-152 85-250 234-255 133-1 214 97 212 233 0 27-12 40-36 40H143c7 103 56 155 149 155 73 2 102-35 160-51zm-51-162c-3-83-41-140-123-141-84 1-127 60-135 141h258" id="n"/><path fill="#333" d="M275-500c131 0 192 66 192 198v259c0 30-19 48-49 48-44 1-52-38-48-85-23 52-73 87-144 87C129 4 53-48 53-143c0-83 43-112 118-129 44-10 121-14 198-13 4-86-15-135-97-135-69 0-119 33-172 50-31 2-45-43-26-66 39-42 123-62 201-64zM244-68c82-4 135-67 125-160-87 1-159-6-198 30-51 48 4 134 73 130" id="o"/><path fill="#333" d="M345-449c0 60-89 33-143 39v242c-2 73 37 94 107 96 27 1 40 12 41 38 1 41-46 41-88 37C155-7 101-60 101-175v-235C55-411-3-400-3-449c0-48 57-39 104-39 4-63-21-152 50-152s47 88 51 152c55 6 143-21 143 39" id="p"/><path fill="#333" d="M448-498c30 0 50 19 50 49v407c0 28-22 48-51 47-43 1-52-37-47-84-27 51-81 85-154 86C127 7 68-58 68-189v-260c0-31 20-49 51-49 30 0 50 19 50 49v259c0 74 27 114 98 115 79 1 130-58 130-139v-235c0-29 21-50 51-49" id="q"/><path fill="#333" d="M121-498c47-1 51 45 47 95 26-58 81-86 158-95 48-5 60 47 37 74-11 13-44 13-68 16-78 5-124 58-124 136v229c1 31-20 48-50 48S69-12 70-43v-407c-1-30 22-48 51-48" id="r"/><path fill="#333" d="M424-204C483-82 372 13 240 7 158 3 88-13 48-58c-16-24-6-66 24-65 54 14 96 52 171 52 68 0 125-39 91-97-28-24-60-29-113-42-96-24-161-43-165-140-6-154 227-186 339-109 22 15 33 32 33 51 1 19-14 38-32 38-55-13-82-55-151-51-71-11-128 72-69 111 63 41 216 39 248 106" id="s"/><g id="a"><use transform="matrix(0.024444444444444442,0,0,0.024444444444444442,0,0)" xlink:href="#m"/><use transform="matrix(0.024444444444444442,0,0,0.024444444444444442,13.468888888888891,0)" xlink:href="#n"/><use transform="matrix(0.024444444444444442,0,0,0.024444444444444442,26.4,0)" xlink:href="#o"/><use transform="matrix(0.024444444444444442,0,0,0.024444444444444442,39.477777777777774,0)" xlink:href="#p"/><use transform="matrix(0.024444444444444442,0,0,0.024444444444444442,48.10666666666666,0)" xlink:href="#q"/><use transform="matrix(0.024444444444444442,0,0,0.024444444444444442,62.01555555555555,0)" xlink:href="#r"/><use transform="matrix(0.024444444444444442,0,0,0.024444444444444442,70.71777777777777,0)" xlink:href="#n"/><use transform="matrix(0.024444444444444442,0,0,0.024444444444444442,83.64888888888888,0)" xlink:href="#s"/></g><path fill="#333" d="M133 5c-31 0-52-21-51-52v-608c0-31 20-50 51-50h241c143-1 236 72 236 211 0 138-94 212-236 212H185v235c0 32-19 52-52 52zm378-499c0-85-49-128-148-128H185v257h178c99 0 148-43 148-129" id="t"/><path fill="#333" d="M121 5C91 5 69-12 70-43v-406c-1-31 21-49 51-49s51 18 50 49v406c1 31-20 48-50 48zm0-601c-37 1-63-23-63-58 0-36 26-58 63-57 36-1 64 22 63 57 0 35-26 59-63 58" id="u"/><path fill="#333" d="M332-500c142 6 217 108 217 256C549-97 475 2 332 7c-78 0-135-36-161-91v223c0 28-21 46-49 46-30 0-53-19-52-48v-586c0-29 21-50 51-49 46-1 55 40 50 90 26-55 83-92 161-92zM308-73c95-1 139-70 138-171 1-101-44-174-138-175-95 1-138 72-137 173-1 102 42 172 137 173" id="v"/><path fill="#333" d="M121 5C91 5 69-12 70-43v-618c-1-31 21-49 51-49s51 18 50 49v618c1 31-20 48-50 48" id="w"/><path fill="#333" d="M169-410c28-54 86-89 164-90 117 0 175 66 175 197v260c0 31-20 48-51 48-30 0-50-19-50-48v-255c0-78-27-119-101-120-81-1-135 57-135 140v235c0 29-20 48-50 48S70-14 70-43v-407c-1-28 23-49 51-48 45-1 53 40 48 88" id="x"/><g id="b"><use transform="matrix(0.03333333333333332,0,0,0.03333333333333332,0,0)" xlink:href="#t"/><use transform="matrix(0.03333333333333332,0,0,0.03333333333333332,21.733333333333324,0)" xlink:href="#u"/><use transform="matrix(0.03333333333333332,0,0,0.03333333333333332,29.799999999999986,0)" xlink:href="#v"/><use transform="matrix(0.03333333333333332,0,0,0.03333333333333332,49.49999999999998,0)" xlink:href="#n"/><use transform="matrix(0.03333333333333332,0,0,0.03333333333333332,67.1333333333333,0)" xlink:href="#w"/><use transform="matrix(0.03333333333333332,0,0,0.03333333333333332,75.19999999999997,0)" xlink:href="#u"/><use transform="matrix(0.03333333333333332,0,0,0.03333333333333332,83.26666666666661,0)" xlink:href="#x"/><use transform="matrix(0.03333333333333332,0,0,0.03333333333333332,102.46666666666661,0)" xlink:href="#n"/></g><path fill="#333" d="M469-710c30 0 51 19 51 48v618c0 30-20 49-50 49-47 2-55-39-50-89-26 55-83 91-161 91C117 1 42-101 42-248s74-247 217-252c77 0 133 36 160 90v-254c0-28 21-47 50-46zM283-73c94-1 138-72 137-173 1-102-42-172-137-173-94 1-140 70-139 171-1 100 46 174 139 175" id="y"/><path fill="#333" d="M360-4C175 41 42-65 42-244s133-289 318-245c41 12 99 35 101 81 1 21-12 40-32 40-50-12-75-55-139-51-96 0-144 73-143 174-1 102 46 171 142 171 64 3 89-42 142-50 29-4 42 43 25 66-20 26-59 44-96 54" id="z"/><path fill="#333" d="M282 7C129 7 42-92 42-246c0-155 86-254 240-254s240 99 240 254S435 7 282 7zm0-80c97-1 139-69 138-173 1-103-42-172-138-173-95 1-139 70-138 173-1 104 41 172 138 173" id="A"/><g id="c"><use transform="matrix(0.024444444444444442,0,0,0.024444444444444442,0,0)" xlink:href="#t"/><use transform="matrix(0.024444444444444442,0,0,0.024444444444444442,15.693333333333335,0)" xlink:href="#r"/><use transform="matrix(0.024444444444444442,0,0,0.024444444444444442,24.395555555555553,0)" xlink:href="#n"/><use transform="matrix(0.024444444444444442,0,0,0.024444444444444442,37.32666666666666,0)" xlink:href="#y"/><use transform="matrix(0.024444444444444442,0,0,0.024444444444444442,51.773333333333326,0)" xlink:href="#u"/><use transform="matrix(0.024444444444444442,0,0,0.024444444444444442,57.68888888888888,0)" xlink:href="#z"/><use transform="matrix(0.024444444444444442,0,0,0.024444444444444442,69.54444444444444,0)" xlink:href="#p"/><use transform="matrix(0.024444444444444442,0,0,0.024444444444444442,78.17333333333332,0)" xlink:href="#u"/><use transform="matrix(0.024444444444444442,0,0,0.024444444444444442,84.08888888888887,0)" xlink:href="#A"/><use transform="matrix(0.024444444444444442,0,0,0.024444444444444442,97.87555555555554,0)" xlink:href="#x"/></g><path fill="#333" d="M30-248c87 1 191-15 191 75 0 78-77 80-158 76V0H30v-248zm33 125c57 0 124 11 124-50 0-59-68-47-124-48v98" id="B"/><path fill="#333" d="M24-231v-30h32v30H24zM24 0v-190h32V0H24" id="C"/><path fill="#333" d="M115-194c55 1 70 41 70 98S169 2 115 4C84 4 66-9 55-30l1 105H24l-1-265h31l2 30c10-21 28-34 59-34zm-8 174c40 0 45-34 45-75s-6-73-45-74c-42 0-51 32-51 76 0 43 10 73 51 73" id="D"/><path fill="#333" d="M100-194c63 0 86 42 84 106H49c0 40 14 67 53 68 26 1 43-12 49-29l28 8c-11 28-37 45-77 45C44 4 14-33 15-96c1-61 26-98 85-98zm52 81c6-60-76-77-97-28-3 7-6 17-6 28h103" id="E"/><path fill="#333" d="M24 0v-261h32V0H24" id="F"/><path fill="#333" d="M117-194c89-4 53 116 60 194h-32v-121c0-31-8-49-39-48C34-167 62-67 57 0H25l-1-190h30c1 10-1 24 2 32 11-22 29-35 61-36" id="G"/><g id="d"><use transform="matrix(0.1111111111111111,0,0,0.1111111111111111,0,0)" xlink:href="#B"/><use transform="matrix(0.1111111111111111,0,0,0.1111111111111111,26.666666666666664,0)" xlink:href="#C"/><use transform="matrix(0.1111111111111111,0,0,0.1111111111111111,35.44444444444444,0)" xlink:href="#D"/><use transform="matrix(0.1111111111111111,0,0,0.1111111111111111,57.666666666666664,0)" xlink:href="#E"/><use transform="matrix(0.1111111111111111,0,0,0.1111111111111111,79.88888888888889,0)" xlink:href="#F"/><use transform="matrix(0.1111111111111111,0,0,0.1111111111111111,88.66666666666666,0)" xlink:href="#C"/><use transform="matrix(0.1111111111111111,0,0,0.1111111111111111,97.44444444444443,0)" xlink:href="#G"/><use transform="matrix(0.1111111111111111,0,0,0.1111111111111111,119.66666666666666,0)" xlink:href="#E"/></g><path fill="#333" d="M389 8C172 4 58-133 58-353c0-219 115-356 331-360 96 1 172 36 228 80 28 22 23 82-15 83-11 0-22-4-33-13-57-41-92-63-177-65-156 1-228 110-228 275 0 199 125 319 316 261 33-7 78-51 122-63 38 1 43 61 15 83C561-28 485 7 389 8" id="H"/><path fill="#333" d="M467-406c26-53 86-94 163-94 109 0 164 66 164 197v260c1 30-21 48-51 48-29 0-51-18-50-48v-259c0-75-22-114-91-116-77 0-119 59-119 140v235c1 30-21 48-51 48-29 0-51-18-50-48v-259c0-75-22-114-91-116-77 0-120 59-120 140v235c1 30-21 48-50 48S69-13 70-43v-407c-1-28 23-48 51-48 43-1 53 37 48 84 26-52 77-85 151-86 80 1 124 33 147 94" id="I"/><g id="e"><use transform="matrix(0.026666666666666665,0,0,0.026666666666666665,0,0)" xlink:href="#H"/><use transform="matrix(0.026666666666666665,0,0,0.026666666666666665,17.786666666666665,0)" xlink:href="#A"/><use transform="matrix(0.026666666666666665,0,0,0.026666666666666665,32.82666666666667,0)" xlink:href="#w"/><use transform="matrix(0.026666666666666665,0,0,0.026666666666666665,39.28,0)" xlink:href="#q"/><use transform="matrix(0.026666666666666665,0,0,0.026666666666666665,54.45333333333333,0)" xlink:href="#I"/><use transform="matrix(0.026666666666666665,0,0,0.026666666666666665,77.44,0)" xlink:href="#x"/></g><path fill="#333" d="M622-501c-1 118-74 184-181 200 42 13 64 38 88 75L632-64c40 53-49 100-84 46L414-226c-29-43-52-65-117-65H184v244c0 32-19 52-51 52-31 0-52-21-51-52v-608c0-31 20-50 51-50h249c147-1 239 63 240 204zm-99 2c-2-93-55-122-153-123H183v248h187c97 0 152-33 153-125" id="J"/><path fill="#333" d="M17-434c-25-54 66-90 91-35l155 344 154-343c16-55 113-22 86 34L312-29c-12 42-85 41-104 0" id="K"/><g id="f"><use transform="matrix(0.026666666666666665,0,0,0.026666666666666665,0,0)" xlink:href="#J"/><use transform="matrix(0.026666666666666665,0,0,0.026666666666666665,18.4,0)" xlink:href="#n"/><use transform="matrix(0.026666666666666665,0,0,0.026666666666666665,32.50666666666666,0)" xlink:href="#I"/><use transform="matrix(0.026666666666666665,0,0,0.026666666666666665,55.49333333333333,0)" xlink:href="#A"/><use transform="matrix(0.026666666666666665,0,0,0.026666666666666665,70.34666666666666,0)" xlink:href="#K"/><use transform="matrix(0.026666666666666665,0,0,0.026666666666666665,84.02666666666666,0)" xlink:href="#n"/><use transform="matrix(0.026666666666666665,0,0,0.026666666666666665,98.13333333333333,0)" xlink:href="#r"/></g><g id="g"><use transform="matrix(0.026666666666666665,0,0,0.026666666666666665,0,0)" xlink:href="#m"/><use transform="matrix(0.026666666666666665,0,0,0.026666666666666665,14.693333333333332,0)" xlink:href="#n"/><use transform="matrix(0.026666666666666665,0,0,0.026666666666666665,28.799999999999997,0)" xlink:href="#o"/><use transform="matrix(0.026666666666666665,0,0,0.026666666666666665,43.06666666666666,0)" xlink:href="#p"/><use transform="matrix(0.026666666666666665,0,0,0.026666666666666665,52.48,0)" xlink:href="#q"/><use transform="matrix(0.026666666666666665,0,0,0.026666666666666665,67.65333333333334,0)" xlink:href="#r"/><use transform="matrix(0.026666666666666665,0,0,0.026666666666666665,77.14666666666668,0)" xlink:href="#n"/></g><path fill="#333" d="M612-374c25 0 42 16 42 41v234c5 86-75 85-142 98C238 52 54-88 58-353c3-222 119-355 338-360 98 0 179 31 231 80 38 22 15 104-30 80-68-36-104-76-199-75-160 1-235 107-234 275-1 173 75 277 242 278 53 0 105-8 154-24v-197c-62-10-170 27-174-39 0-25 18-39 43-39h183" id="L"/><g id="h"><use transform="matrix(0.026666666666666665,0,0,0.026666666666666665,0,0)" xlink:href="#L"/><use transform="matrix(0.026666666666666665,0,0,0.026666666666666665,19.41333333333333,0)" xlink:href="#n"/><use transform="matrix(0.026666666666666665,0,0,0.026666666666666665,33.519999999999996,0)" xlink:href="#x"/><use transform="matrix(0.026666666666666665,0,0,0.026666666666666665,48.879999999999995,0)" xlink:href="#n"/><use transform="matrix(0.026666666666666665,0,0,0.026666666666666665,62.986666666666665,0)" xlink:href="#r"/><use transform="matrix(0.026666666666666665,0,0,0.026666666666666665,72.66666666666667,0)" xlink:href="#o"/><use transform="matrix(0.026666666666666665,0,0,0.026666666666666665,86.93333333333334,0)" xlink:href="#p"/><use transform="matrix(0.026666666666666665,0,0,0.026666666666666665,96.34666666666666,0)" xlink:href="#A"/><use transform="matrix(0.026666666666666665,0,0,0.026666666666666665,111.38666666666666,0)" xlink:href="#r"/></g><path fill="#333" d="M385 8C171 8 58-134 58-352c0-219 111-361 327-361s328 141 328 360S601 8 385 8zm0-84c152-1 226-114 224-277 2-164-71-275-224-276-151 2-224 114-222 276-2 162 71 275 222 277" id="M"/><path fill="#333" d="M108-226c-29 0-47-13-47-40s18-41 47-41h213c29 0 47 14 47 41s-18 40-47 40H108" id="N"/><path fill="#333" d="M629-710c30-1 52 22 51 52v611c1 30-21 53-51 52-31 0-52-21-51-52v-269H184v269c1 30-21 53-51 52-31 0-52-21-51-52v-611c-1-30 21-53 51-52 30-1 52 22 51 52v258h394v-258c-1-30 21-53 51-52" id="O"/><g id="i"><use transform="matrix(0.026666666666666665,0,0,0.026666666666666665,0,0)" xlink:href="#M"/><use transform="matrix(0.026666666666666665,0,0,0.026666666666666665,20.56,0)" xlink:href="#x"/><use transform="matrix(0.026666666666666665,0,0,0.026666666666666665,35.92,0)" xlink:href="#n"/><use transform="matrix(0.026666666666666665,0,0,0.026666666666666665,50.346666666666664,0)" xlink:href="#N"/><use transform="matrix(0.026666666666666665,0,0,0.026666666666666665,61.78666666666666,0)" xlink:href="#O"/><use transform="matrix(0.026666666666666665,0,0,0.026666666666666665,82.10666666666665,0)" xlink:href="#A"/><use transform="matrix(0.026666666666666665,0,0,0.026666666666666665,97.09333333333333,0)" xlink:href="#p"/></g><path fill="#333" d="M133 0c-31 0-51-19-51-50v-605c0-31 20-50 51-50h368c29 0 48 14 48 42s-19 41-48 41H183v222h298c29 0 48 14 48 42s-19 42-48 42H183v233h318c32 0 48 14 48 41 0 28-19 42-48 42H133" id="P"/><g id="j"><use transform="matrix(0.026666666666666665,0,0,0.026666666666666665,0,0)" xlink:href="#P"/><use transform="matrix(0.026666666666666665,0,0,0.026666666666666665,15.6,0)" xlink:href="#x"/><use transform="matrix(0.026666666666666665,0,0,0.026666666666666665,30.959999999999997,0)" xlink:href="#z"/><use transform="matrix(0.026666666666666665,0,0,0.026666666666666665,43.84,0)" xlink:href="#A"/><use transform="matrix(0.026666666666666665,0,0,0.026666666666666665,58.88000000000001,0)" xlink:href="#y"/><use transform="matrix(0.026666666666666665,0,0,0.026666666666666665,74.64,0)" xlink:href="#n"/><use transform="matrix(0.026666666666666665,0,0,0.026666666666666665,88.74666666666667,0)" xlink:href="#r"/></g><path fill="#333" d="M534-692c35-51 113 11 72 61L387-359 616-74c45 43-32 111-72 61L327-286 109-13C74 37-3-25 37-74l230-285L48-631c-43-44 32-112 72-61l207 261" id="Q"/><path fill="#333" d="M497-363c76 21 128 78 128 171C624-62 525 0 388 0H133c-31 0-51-19-51-50v-605c0-31 20-50 51-50h244c133-2 231 59 232 184-1 82-48 135-112 158zm12-149c5-145-189-104-326-110v222h178c99 0 148-37 148-112zM183-83c143-8 351 41 343-115-2-87-55-119-149-119H183v234" id="R"/><g id="k"><use transform="matrix(0.026666666666666665,0,0,0.026666666666666665,0,0)" xlink:href="#Q"/><use transform="matrix(0.026666666666666665,0,0,0.026666666666666665,16.77333333333333,0)" xlink:href="#L"/><use transform="matrix(0.026666666666666665,0,0,0.026666666666666665,36.18666666666666,0)" xlink:href="#R"/><use transform="matrix(0.026666666666666665,0,0,0.026666666666666665,54.26666666666666,0)" xlink:href="#A"/><use transform="matrix(0.026666666666666665,0,0,0.026666666666666665,69.30666666666666,0)" xlink:href="#A"/><use transform="matrix(0.026666666666666665,0,0,0.026666666666666665,84.34666666666666,0)" xlink:href="#s"/><use transform="matrix(0.026666666666666665,0,0,0.026666666666666665,97.06666666666666,0)" xlink:href="#p"/></g><path fill="#333" d="M474-498c30-1 50 20 50 49v410c0 151-83 226-235 226-72 0-132-14-180-41-25-14-37-31-37-50-1-21 14-39 33-39 59 16 104 51 182 51 92 0 138-46 138-139v-77c-26 55-85 93-164 93-141-4-219-98-219-242 0-143 79-238 219-243 79 0 136 37 163 92-4-50 3-92 50-90zM285-95c91 0 140-67 139-162 1-94-48-162-139-162-92 0-142 67-141 162-2 95 50 162 141 162" id="S"/><g id="l"><use transform="matrix(0.026666666666666665,0,0,0.026666666666666665,0,0)" xlink:href="#J"/><use transform="matrix(0.026666666666666665,0,0,0.026666666666666665,18.4,0)" xlink:href="#n"/><use transform="matrix(0.026666666666666665,0,0,0.026666666666666665,32.50666666666666,0)" xlink:href="#S"/><use transform="matrix(0.026666666666666665,0,0,0.026666666666666665,48.37333333333333,0)" xlink:href="#r"/><use transform="matrix(0.026666666666666665,0,0,0.026666666666666665,57.86666666666666,0)" xlink:href="#n"/><use transform="matrix(0.026666666666666665,0,0,0.026666666666666665,71.97333333333333,0)" xlink:href="#s"/><use transform="matrix(0.026666666666666665,0,0,0.026666666666666665,84.82666666666665,0)" xlink:href="#s"/><use transform="matrix(0.026666666666666665,0,0,0.026666666666666665,97.67999999999998,0)" xlink:href="#A"/><use transform="matrix(0.026666666666666665,0,0,0.026666666666666665,112.71999999999997,0)" xlink:href="#r"/></g></defs></g></svg>